<svg width="2589" height="605" viewBox="0 0 2589 605" fill="none" xmlns="http://www.w3.org/2000/svg">
<path d="M904.955 489.149C887.554 489.149 872.047 486.131 858.435 480.094C844.822 473.938 834.05 464.883 826.119 452.928C818.307 440.854 814.401 425.821 814.401 407.828C814.401 392.677 817.182 379.952 822.746 369.653C828.309 359.355 835.885 351.069 845.473 344.795C855.061 338.522 865.951 333.787 878.143 330.591C890.454 327.395 903.357 325.146 916.851 323.844C932.713 322.187 945.497 320.648 955.203 319.227C964.91 317.688 971.953 315.439 976.332 312.48C980.712 309.521 982.902 305.141 982.902 299.341V298.276C982.902 287.03 979.351 278.33 972.249 272.175C965.265 266.019 955.321 262.942 942.419 262.942C928.806 262.942 917.975 265.96 909.926 271.997C901.877 277.916 896.55 285.373 893.946 294.369L823.989 288.688C827.54 272.116 834.524 257.793 844.94 245.719C855.357 233.527 868.792 224.175 885.246 217.665C901.818 211.036 920.994 207.722 942.774 207.722C957.926 207.722 972.426 209.497 986.276 213.048C1000.24 216.599 1012.61 222.104 1023.38 229.561C1034.28 237.018 1042.86 246.607 1049.13 258.325C1055.4 269.926 1058.54 283.834 1058.54 300.051V484H986.808V446.18H984.678C980.298 454.703 974.438 462.22 967.099 468.73C959.76 475.122 950.942 480.153 940.643 483.822C930.345 487.374 918.449 489.149 904.955 489.149ZM926.616 436.947C937.743 436.947 947.568 434.758 956.091 430.378C964.614 425.88 971.302 419.843 976.155 412.267C981.008 404.691 983.435 396.109 983.435 386.521V357.58C981.067 359.118 977.812 360.539 973.669 361.841C969.644 363.025 965.087 364.149 959.997 365.214C954.907 366.161 949.817 367.049 944.727 367.878C939.637 368.588 935.021 369.239 930.878 369.831C922 371.133 914.247 373.205 907.618 376.045C900.989 378.886 895.84 382.733 892.17 387.587C888.501 392.321 886.666 398.24 886.666 405.342C886.666 415.641 890.395 423.512 897.852 428.957C905.428 434.284 915.016 436.947 926.616 436.947ZM1192.86 326.33V484H1117.22V211.273H1189.31V259.391H1192.51C1198.54 243.529 1208.67 230.982 1222.87 221.749C1237.07 212.397 1254.3 207.722 1274.54 207.722C1293.48 207.722 1309.99 211.865 1324.08 220.151C1338.16 228.437 1349.11 240.274 1356.93 255.662C1364.74 270.932 1368.64 289.161 1368.64 310.349V484H1293V323.844C1293.12 307.153 1288.86 294.133 1280.22 284.781C1271.58 275.312 1259.68 270.577 1244.53 270.577C1234.35 270.577 1225.36 272.767 1217.54 277.146C1209.85 281.526 1203.81 287.918 1199.43 296.322C1195.17 304.608 1192.98 314.611 1192.86 326.33ZM1465.19 586.273C1455.6 586.273 1446.61 585.503 1438.2 583.964C1429.92 582.544 1423.05 580.709 1417.61 578.46L1434.65 521.997C1443.53 524.72 1451.52 526.199 1458.62 526.436C1465.84 526.673 1472.06 525.016 1477.26 521.464C1482.59 517.913 1486.91 511.876 1490.23 503.354L1494.67 491.812L1396.83 211.273H1476.38L1532.84 411.557H1535.68L1592.68 211.273H1672.75L1566.75 513.474C1561.66 528.152 1554.74 540.937 1545.98 551.827C1537.34 562.835 1526.39 571.299 1513.13 577.217C1499.87 583.254 1483.89 586.273 1465.19 586.273ZM1938.38 289.043L1869.13 293.304C1867.95 287.385 1865.4 282.059 1861.5 277.324C1857.59 272.471 1852.44 268.624 1846.05 265.783C1839.78 262.823 1832.26 261.344 1823.5 261.344C1811.78 261.344 1801.9 263.83 1793.85 268.801C1785.8 273.654 1781.77 280.165 1781.77 288.332C1781.77 294.843 1784.38 300.347 1789.59 304.845C1794.8 309.343 1803.73 312.954 1816.4 315.676L1865.76 325.619C1892.27 331.064 1912.04 339.824 1925.06 351.898C1938.08 363.972 1944.59 379.833 1944.59 399.483C1944.59 417.357 1939.33 433.041 1928.79 446.536C1918.37 460.03 1904.05 470.565 1885.82 478.141C1867.71 485.598 1846.82 489.327 1823.15 489.327C1787.04 489.327 1758.28 481.81 1736.85 466.777C1715.55 451.625 1703.06 431.029 1699.39 404.987L1773.78 401.081C1776.03 412.089 1781.48 420.494 1790.12 426.294C1798.76 431.976 1809.83 434.817 1823.32 434.817C1836.58 434.817 1847.23 432.272 1855.28 427.182C1863.45 421.973 1867.59 415.286 1867.71 407.118C1867.59 400.252 1864.69 394.63 1859.01 390.25C1853.33 385.752 1844.57 382.319 1832.73 379.952L1785.5 370.541C1758.87 365.214 1739.04 355.982 1726.02 342.842C1713.12 329.703 1706.67 312.954 1706.67 292.594C1706.67 275.075 1711.4 259.982 1720.87 247.317C1730.46 234.651 1743.9 224.885 1761.18 218.02C1778.58 211.154 1798.94 207.722 1822.26 207.722C1856.7 207.722 1883.81 215.001 1903.58 229.561C1923.46 244.121 1935.07 263.948 1938.38 289.043ZM1992.22 484V211.273H2067.86V484H1992.22ZM2030.22 176.116C2018.98 176.116 2009.33 172.388 2001.28 164.93C1993.35 157.355 1989.38 148.299 1989.38 137.764C1989.38 127.348 1993.35 118.411 2001.28 110.953C2009.33 103.377 2018.98 99.5895 2030.22 99.5895C2041.47 99.5895 2051.05 103.377 2058.99 110.953C2067.03 118.411 2071.06 127.348 2071.06 137.764C2071.06 148.299 2067.03 157.355 2058.99 164.93C2051.05 172.388 2041.47 176.116 2030.22 176.116ZM2273.52 211.273V268.091H2109.28V211.273H2273.52ZM2146.56 145.932H2222.2V400.193C2222.2 407.177 2223.27 412.622 2225.4 416.528C2227.53 420.316 2230.49 422.98 2234.28 424.518C2238.18 426.057 2242.68 426.827 2247.77 426.827C2251.32 426.827 2254.87 426.531 2258.43 425.939C2261.98 425.229 2264.7 424.696 2266.59 424.341L2278.49 480.626C2274.7 481.81 2269.38 483.171 2262.51 484.71C2255.64 486.367 2247.3 487.374 2237.47 487.729C2219.24 488.439 2203.26 486.012 2189.53 480.449C2175.92 474.885 2165.33 466.244 2157.75 454.526C2150.18 442.807 2146.45 428.01 2146.56 410.136V145.932ZM2444.15 489.327C2416.1 489.327 2391.95 483.645 2371.71 472.281C2351.58 460.799 2336.08 444.582 2325.19 423.631C2314.3 402.561 2308.85 377.643 2308.85 348.879C2308.85 320.825 2314.3 296.204 2325.19 275.016C2336.08 253.827 2351.41 237.314 2371.17 225.477C2391.06 213.64 2414.38 207.722 2441.13 207.722C2459.12 207.722 2475.87 210.622 2491.38 216.422C2507.01 222.104 2520.62 230.686 2532.22 242.168C2543.94 253.65 2553.05 268.091 2559.56 285.491C2566.07 302.774 2569.33 323.015 2569.33 346.216V366.99H2339.04V320.115H2498.13C2498.13 309.225 2495.76 299.578 2491.03 291.173C2486.29 282.769 2479.72 276.199 2471.32 271.464C2463.03 266.611 2453.38 264.185 2442.37 264.185C2430.89 264.185 2420.71 266.848 2411.83 272.175C2403.08 277.383 2396.21 284.426 2391.24 293.304C2386.27 302.063 2383.72 311.829 2383.6 322.601V367.168C2383.6 380.662 2386.09 392.321 2391.06 402.146C2396.15 411.971 2403.31 419.547 2412.55 424.874C2421.78 430.2 2432.73 432.864 2445.39 432.864C2453.8 432.864 2461.49 431.68 2468.48 429.312C2475.46 426.945 2481.44 423.394 2486.41 418.659C2491.38 413.924 2495.17 408.124 2497.77 401.259L2567.73 405.875C2564.18 422.684 2556.9 437.362 2545.89 449.909C2535 462.338 2520.91 472.045 2503.63 479.028C2486.47 485.894 2466.64 489.327 2444.15 489.327Z" fill="#1E293B"/>
<mask id="path-2-inside-1_3_185" fill="white">
<path fill-rule="evenodd" clip-rule="evenodd" d="M75 39C33.5786 39 0 72.5786 0 114V491C0 532.421 33.5787 566 75 566H90V205C90 163.579 123.579 130 165 130H660V114C660 72.5786 626.421 39 585 39H75ZM660 200H165C162.239 200 160 202.239 160 205V566H585C626.421 566 660 532.421 660 491V200Z"/>
</mask>
<path fill-rule="evenodd" clip-rule="evenodd" d="M75 39C33.5786 39 0 72.5786 0 114V491C0 532.421 33.5787 566 75 566H90V205C90 163.579 123.579 130 165 130H660V114C660 72.5786 626.421 39 585 39H75ZM660 200H165C162.239 200 160 202.239 160 205V566H585C626.421 566 660 532.421 660 491V200Z" fill="#4F46E5"/>
<path d="M90 566V636H160V566H90ZM660 130V200H730V130H660ZM660 200H730V130H660V200ZM160 566H90V636H160V566ZM70 114C70 111.239 72.2386 109 75 109V-31C-5.08128 -31 -70 33.9187 -70 114H70ZM70 491V114H-70V491H70ZM75 496C72.2386 496 70 493.761 70 491H-70C-70 571.081 -5.08127 636 75 636V496ZM90 496H75V636H90V496ZM20 205V566H160V205H20ZM165 60C84.9187 60 20 124.919 20 205H160C160 202.239 162.239 200 165 200V60ZM660 60H165V200H660V60ZM590 114V130H730V114H590ZM585 109C587.761 109 590 111.239 590 114H730C730 33.9187 665.081 -31 585 -31V109ZM75 109H585V-31H75V109ZM660 130H165V270H660V130ZM165 130C123.578 130 90 163.579 90 205H230C230 240.898 200.899 270 165 270V130ZM90 205V566H230V205H90ZM585 496H160V636H585V496ZM590 491C590 493.761 587.761 496 585 496V636C665.081 636 730 571.081 730 491H590ZM590 200V491H730V200H590Z" fill="#4F46E5" mask="url(#path-2-inside-1_3_185)"/>
</svg>
