<svg width="2574" height="605" viewBox="0 0 2574 605" fill="none" xmlns="http://www.w3.org/2000/svg">
<path d="M889.955 489.149C872.554 489.149 857.047 486.131 843.435 480.094C829.822 473.938 819.05 464.883 811.119 452.928C803.307 440.854 799.401 425.821 799.401 407.828C799.401 392.677 802.182 379.952 807.746 369.653C813.309 359.355 820.885 351.069 830.473 344.795C840.061 338.522 850.951 333.787 863.143 330.591C875.454 327.395 888.357 325.146 901.851 323.844C917.713 322.187 930.497 320.648 940.203 319.227C949.91 317.688 956.953 315.439 961.332 312.48C965.712 309.521 967.902 305.141 967.902 299.341V298.276C967.902 287.03 964.351 278.33 957.249 272.175C950.265 266.019 940.321 262.942 927.419 262.942C913.806 262.942 902.975 265.96 894.926 271.997C886.877 277.916 881.55 285.373 878.946 294.369L808.989 288.688C812.54 272.116 819.524 257.793 829.94 245.719C840.357 233.527 853.792 224.175 870.246 217.665C886.818 211.036 905.994 207.722 927.774 207.722C942.926 207.722 957.426 209.497 971.276 213.048C985.243 216.599 997.613 222.104 1008.38 229.561C1019.28 237.018 1027.86 246.607 1034.13 258.325C1040.4 269.926 1043.54 283.834 1043.54 300.051V484H971.808V446.18H969.678C965.298 454.703 959.438 462.22 952.099 468.73C944.76 475.122 935.942 480.153 925.643 483.822C915.345 487.374 903.449 489.149 889.955 489.149ZM911.616 436.947C922.743 436.947 932.568 434.758 941.091 430.378C949.614 425.88 956.302 419.843 961.155 412.267C966.008 404.691 968.435 396.109 968.435 386.521V357.58C966.067 359.118 962.812 360.539 958.669 361.841C954.644 363.025 950.087 364.149 944.997 365.214C939.907 366.161 934.817 367.049 929.727 367.878C924.637 368.588 920.021 369.239 915.878 369.831C907 371.133 899.247 373.205 892.618 376.045C885.989 378.886 880.84 382.733 877.17 387.587C873.501 392.321 871.666 398.24 871.666 405.342C871.666 415.641 875.395 423.512 882.852 428.957C890.428 434.284 900.016 436.947 911.616 436.947ZM1177.86 326.33V484H1102.22V211.273H1174.31V259.391H1177.51C1183.54 243.529 1193.67 230.982 1207.87 221.749C1222.07 212.397 1239.3 207.722 1259.54 207.722C1278.48 207.722 1294.99 211.865 1309.08 220.151C1323.16 228.437 1334.11 240.274 1341.93 255.662C1349.74 270.932 1353.64 289.161 1353.64 310.349V484H1278V323.844C1278.12 307.153 1273.86 294.133 1265.22 284.781C1256.58 275.312 1244.68 270.577 1229.53 270.577C1219.35 270.577 1210.36 272.767 1202.54 277.146C1194.85 281.526 1188.81 287.918 1184.43 296.322C1180.17 304.608 1177.98 314.611 1177.86 326.33ZM1450.19 586.273C1440.6 586.273 1431.61 585.503 1423.2 583.964C1414.92 582.544 1408.05 580.709 1402.61 578.46L1419.65 521.997C1428.53 524.72 1436.52 526.199 1443.62 526.436C1450.84 526.673 1457.06 525.016 1462.26 521.464C1467.59 517.913 1471.91 511.876 1475.23 503.354L1479.67 491.812L1381.83 211.273H1461.38L1517.84 411.557H1520.68L1577.68 211.273H1657.75L1551.75 513.474C1546.66 528.152 1539.74 540.937 1530.98 551.827C1522.34 562.835 1511.39 571.299 1498.13 577.217C1484.87 583.254 1468.89 586.273 1450.19 586.273ZM1923.38 289.043L1854.13 293.304C1852.95 287.385 1850.4 282.059 1846.5 277.324C1842.59 272.471 1837.44 268.624 1831.05 265.783C1824.78 262.823 1817.26 261.344 1808.5 261.344C1796.78 261.344 1786.9 263.83 1778.85 268.801C1770.8 273.654 1766.77 280.165 1766.77 288.332C1766.77 294.843 1769.38 300.347 1774.59 304.845C1779.8 309.343 1788.73 312.954 1801.4 315.676L1850.76 325.619C1877.27 331.064 1897.04 339.824 1910.06 351.898C1923.08 363.972 1929.59 379.833 1929.59 399.483C1929.59 417.357 1924.33 433.041 1913.79 446.536C1903.37 460.03 1889.05 470.565 1870.82 478.141C1852.71 485.598 1831.82 489.327 1808.15 489.327C1772.04 489.327 1743.28 481.81 1721.85 466.777C1700.55 451.625 1688.06 431.029 1684.39 404.987L1758.78 401.081C1761.03 412.089 1766.48 420.494 1775.12 426.294C1783.76 431.976 1794.83 434.817 1808.32 434.817C1821.58 434.817 1832.23 432.272 1840.28 427.182C1848.45 421.973 1852.59 415.286 1852.71 407.118C1852.59 400.252 1849.69 394.63 1844.01 390.25C1838.33 385.752 1829.57 382.319 1817.73 379.952L1770.5 370.541C1743.87 365.214 1724.04 355.982 1711.02 342.842C1698.12 329.703 1691.67 312.954 1691.67 292.594C1691.67 275.075 1696.4 259.982 1705.87 247.317C1715.46 234.651 1728.9 224.885 1746.18 218.02C1763.58 211.154 1783.94 207.722 1807.26 207.722C1841.7 207.722 1868.81 215.001 1888.58 229.561C1908.46 244.121 1920.07 263.948 1923.38 289.043ZM1977.22 484V211.273H2052.86V484H1977.22ZM2015.22 176.116C2003.98 176.116 1994.33 172.388 1986.28 164.93C1978.35 157.355 1974.38 148.299 1974.38 137.764C1974.38 127.348 1978.35 118.411 1986.28 110.953C1994.33 103.377 2003.98 99.5895 2015.22 99.5895C2026.47 99.5895 2036.05 103.377 2043.99 110.953C2052.03 118.411 2056.06 127.348 2056.06 137.764C2056.06 148.299 2052.03 157.355 2043.99 164.93C2036.05 172.388 2026.47 176.116 2015.22 176.116ZM2258.52 211.273V268.091H2094.28V211.273H2258.52ZM2131.56 145.932H2207.2V400.193C2207.2 407.177 2208.27 412.622 2210.4 416.528C2212.53 420.316 2215.49 422.98 2219.28 424.518C2223.18 426.057 2227.68 426.827 2232.77 426.827C2236.32 426.827 2239.87 426.531 2243.43 425.939C2246.98 425.229 2249.7 424.696 2251.59 424.341L2263.49 480.626C2259.7 481.81 2254.38 483.171 2247.51 484.71C2240.64 486.367 2232.3 487.374 2222.47 487.729C2204.24 488.439 2188.26 486.012 2174.53 480.449C2160.92 474.885 2150.33 466.244 2142.75 454.526C2135.18 442.807 2131.45 428.01 2131.56 410.136V145.932ZM2429.15 489.327C2401.1 489.327 2376.95 483.645 2356.71 472.281C2336.58 460.799 2321.08 444.582 2310.19 423.631C2299.3 402.561 2293.85 377.643 2293.85 348.879C2293.85 320.825 2299.3 296.204 2310.19 275.016C2321.08 253.827 2336.41 237.314 2356.17 225.477C2376.06 213.64 2399.38 207.722 2426.13 207.722C2444.12 207.722 2460.87 210.622 2476.38 216.422C2492.01 222.104 2505.62 230.686 2517.22 242.168C2528.94 253.65 2538.05 268.091 2544.56 285.491C2551.07 302.774 2554.33 323.015 2554.33 346.216V366.99H2324.04V320.115H2483.13C2483.13 309.225 2480.76 299.578 2476.03 291.173C2471.29 282.769 2464.72 276.199 2456.32 271.464C2448.03 266.611 2438.38 264.185 2427.37 264.185C2415.89 264.185 2405.71 266.848 2396.83 272.175C2388.08 277.383 2381.21 284.426 2376.24 293.304C2371.27 302.063 2368.72 311.829 2368.6 322.601V367.168C2368.6 380.662 2371.09 392.321 2376.06 402.146C2381.15 411.971 2388.31 419.547 2397.55 424.874C2406.78 430.2 2417.73 432.864 2430.39 432.864C2438.8 432.864 2446.49 431.68 2453.48 429.312C2460.46 426.945 2466.44 423.394 2471.41 418.659C2476.38 413.924 2480.17 408.124 2482.77 401.259L2552.73 405.875C2549.18 422.684 2541.9 437.362 2530.89 449.909C2520 462.338 2505.91 472.045 2488.63 479.028C2471.47 485.894 2451.64 489.327 2429.15 489.327Z" fill="white"/>
<mask id="path-2-inside-1_3_187" fill="white">
<path fill-rule="evenodd" clip-rule="evenodd" d="M75 39C33.5786 39 0 72.5786 0 114V491C0 532.421 33.5787 566 75 566H90V205C90 163.579 123.579 130 165 130H660V114C660 72.5786 626.421 39 585 39H75ZM660 200H165C162.239 200 160 202.239 160 205V566H585C626.421 566 660 532.421 660 491V200Z"/>
</mask>
<path fill-rule="evenodd" clip-rule="evenodd" d="M75 39C33.5786 39 0 72.5786 0 114V491C0 532.421 33.5787 566 75 566H90V205C90 163.579 123.579 130 165 130H660V114C660 72.5786 626.421 39 585 39H75ZM660 200H165C162.239 200 160 202.239 160 205V566H585C626.421 566 660 532.421 660 491V200Z" fill="#4F46E5"/>
<path d="M90 566V636H160V566H90ZM660 130V200H730V130H660ZM660 200H730V130H660V200ZM160 566H90V636H160V566ZM70 114C70 111.239 72.2386 109 75 109V-31C-5.08128 -31 -70 33.9187 -70 114H70ZM70 491V114H-70V491H70ZM75 496C72.2386 496 70 493.761 70 491H-70C-70 571.081 -5.08127 636 75 636V496ZM90 496H75V636H90V496ZM20 205V566H160V205H20ZM165 60C84.9187 60 20 124.919 20 205H160C160 202.239 162.239 200 165 200V60ZM660 60H165V200H660V60ZM590 114V130H730V114H590ZM585 109C587.761 109 590 111.239 590 114H730C730 33.9187 665.081 -31 585 -31V109ZM75 109H585V-31H75V109ZM660 130H165V270H660V130ZM165 130C123.578 130 90 163.579 90 205H230C230 240.898 200.899 270 165 270V130ZM90 205V566H230V205H90ZM585 496H160V636H585V496ZM590 491C590 493.761 587.761 496 585 496V636C665.081 636 730 571.081 730 491H590ZM590 200V491H730V200H590Z" fill="#4F46E5" mask="url(#path-2-inside-1_3_187)"/>
</svg>
